ply
format ascii 1.0
comment created by ply_export.py from Blender
element vertex 139
property float32 x
property float32 y
property float32 z
property float32 nx
property float32 ny
property float32 nz
property float32 s
property float32 t
element material 1
property string texture_map
element face 50
property list uint8 int32 vertex_indices
property uint32 material_index
end_header
-21.613224 29.393675 0.692343 -0.017487 -0.837001 -0.546892 0.666667 0.000000
-44.141148 60.140980 -45.644428 -0.017487 -0.837001 -0.546892 1.000000 0.000000
-21.613222 29.393677 0.692340 -0.017487 -0.837001 -0.546892 0.666667 0.333333
-21.613224 29.393675 0.692343 0.201910 -0.878475 -0.432997 0.666667 0.000000
-21.613222 29.393677 0.692340 0.201910 -0.878475 -0.432997 0.666667 0.333333
14.639088 29.393677 17.597073 0.201910 -0.878475 -0.432997 0.333333 0.333333
14.639088 29.393677 17.597073 0.281777 -0.745232 -0.604327 0.333333 0.333333
14.639087 29.393675 17.597075 0.281777 -0.745232 -0.604327 0.333333 0.000000
-21.613224 29.393675 0.692343 0.281777 -0.745232 -0.604327 0.666667 0.000000
14.639087 29.393675 17.597075 0.310617 -0.745262 -0.589953 0.333333 0.000000
14.639088 29.393677 17.597073 0.310617 -0.745262 -0.589953 0.333333 0.333333
64.615784 60.140980 5.069767 0.310617 -0.745262 -0.589953 0.000000 0.333333
-44.141148 60.140980 -45.644428 -0.504715 0.687643 -0.521897 1.000000 0.333333
-33.176743 -45.781734 25.490387 -0.534928 -0.738182 0.410993 1.000000 0.666667
-33.176743 -45.781734 25.490387 -0.534928 -0.738182 0.410993 0.666667 0.666667
-33.176743 -45.781734 25.490387 -0.760491 0.305887 0.572710 0.666667 0.666667
-21.613222 29.393677 0.692340 -0.760491 0.305887 0.572710 0.666667 0.333333
-44.141148 60.140980 -45.644428 -0.760491 0.305887 0.572710 1.000000 0.333333
-21.613222 29.393677 0.692340 -0.397107 0.341990 0.851650 0.666667 0.333333
-33.176743 -45.781734 25.490387 -0.397107 0.341990 0.851650 0.666667 0.666667
3.075567 -45.781734 42.395119 -0.397107 0.341990 0.851650 0.333333 0.666667
14.639088 29.393677 17.597073 -0.397107 0.341990 0.851650 0.109945 0.244832
14.639088 29.393677 17.597073 0.392926 0.788965 0.472335 0.333333 0.333333
3.075567 -45.781734 42.395119 0.049226 -0.732810 0.678610 0.333333 0.666667
3.075567 -45.781734 42.395119 0.049226 -0.732810 0.678610 0.000000 0.666667
3.075567 -45.781734 42.395119 0.050081 0.305887 0.950713 0.000000 0.666667
64.615784 60.140980 5.069767 0.050081 0.305887 0.950713 0.000000 0.333333
14.639088 29.393677 17.597073 0.050081 0.305887 0.950713 0.333333 0.333333
-9.998842 -71.415985 23.109249 -0.132023 -0.943083 0.305155 0.666667 1.000000
-9.998842 -71.415985 23.109249 -0.383007 -0.422590 0.821375 0.333333 1.000000
3.075567 -45.781734 42.395119 -0.383007 -0.422590 0.821375 0.333333 0.666667
-33.176743 -45.781734 25.490387 -0.383007 -0.422590 0.821375 0.666667 0.666667
-9.998842 -71.415985 23.109249 -0.132023 -0.943083 0.305155 0.000000 1.000000
-44.141148 60.140980 -45.644428 -0.304270 0.000000 0.952574 0.000000 0.000000
-5.727971 15.712867 -33.373688 -0.304270 0.000000 0.952574 0.333333 0.000000
-5.727971 15.712871 -33.373688 -0.304270 0.000000 0.952574 0.333333 0.333333
-5.727971 15.712867 -33.373688 -0.384930 0.412732 0.825495 0.333333 0.000000
30.524340 15.712867 -16.468956 -0.384930 0.412732 0.825495 0.666667 0.000000
30.524340 15.712871 -16.468958 -0.384930 0.412732 0.825495 0.666667 0.333333
30.524340 15.712871 -16.468958 -0.422590 0.000000 0.906278 0.666667 0.333333
-5.727971 15.712871 -33.373688 -0.422590 0.000000 0.906278 0.333333 0.333333
-5.727971 15.712867 -33.373688 -0.422590 0.000000 0.906278 0.333333 0.000000
64.615784 60.140980 5.069767 -0.753990 0.293741 0.587512 1.000000 0.333333
30.524340 15.712871 -16.468958 -0.753990 0.293741 0.587512 0.666667 0.333333
30.524340 15.712867 -16.468956 -0.753990 0.293741 0.587512 0.666667 0.000000
-44.141148 60.140980 -45.644428 -0.050081 -0.305887 -0.950713 0.000000 0.333333
-5.727971 15.712871 -33.373688 -0.050081 -0.305887 -0.950713 0.333333 0.333333
-17.291492 -59.462543 -8.575641 -0.050081 -0.305887 -0.950713 0.333333 0.666667
-17.291492 -59.462543 -8.575641 -0.276589 -0.951140 -0.137150 0.333333 0.666667
-17.291492 -59.462543 -8.575641 -0.276589 -0.951140 -0.137150 0.000000 0.666667
-44.141148 60.140980 -45.644428 -0.504715 0.687643 -0.521897 0.000000 0.333333
-5.727971 15.712871 -33.373688 0.397107 -0.341990 -0.851650 0.333333 0.333333
30.524340 15.712871 -16.468958 0.397107 -0.341990 -0.851650 0.666667 0.333333
18.960817 -59.462543 8.329091 0.397107 -0.341990 -0.851650 0.666667 0.666667
18.960817 -59.462543 8.329091 0.397107 -0.341990 -0.851650 0.666667 0.666667
-17.291492 -59.462543 -8.575641 0.397107 -0.341990 -0.851650 0.333333 0.666667
-5.727971 15.712871 -33.373688 0.397107 -0.341990 -0.851650 0.333333 0.333333
30.524340 15.712871 -16.468958 0.760491 -0.305887 -0.572710 0.666667 0.333333
64.615784 60.140980 5.069767 0.760491 -0.305887 -0.572710 1.000000 0.333333
18.960817 -59.462543 8.329091 0.760491 -0.305887 -0.572710 1.000000 0.666667
18.960817 -59.462543 8.329091 0.301126 -0.944334 0.132267 1.000000 0.666667
18.960817 -59.462543 8.329091 0.301126 -0.944334 0.132267 0.666667 0.666667
30.524340 15.712871 -16.468958 0.801630 0.412641 -0.432508 0.666667 0.333333
-9.998842 -71.415985 23.109249 -0.132023 -0.943083 0.305155 0.333333 1.000000
-17.291492 -59.462543 -8.575641 0.178594 -0.906278 -0.383007 0.333333 0.666667
18.960817 -59.462543 8.329091 0.178594 -0.906278 -0.383007 0.666667 0.666667
-9.998842 -71.415985 23.109249 0.178594 -0.906278 -0.383007 0.666667 1.000000
-9.998842 -71.415985 23.109249 -0.132023 -0.943083 0.305155 1.000000 1.000000
-44.141148 60.140980 -45.644428 0.743034 0.664449 0.079623 0.000000 1.000000
-21.613224 29.393675 0.692343 0.743034 0.664449 0.079623 0.000000 0.000000
-13.670598 22.553272 -16.340672 0.743034 0.664449 0.079623 0.191429 0.025381
-13.670598 22.553272 -16.340672 -0.440626 0.726920 -0.526688 0.333333 0.500000
-44.141148 60.140980 -45.644428 -0.504715 0.687643 -0.521897 0.000000 0.500000
-44.141148 60.140980 -45.644428 -0.504715 0.687643 -0.521897 0.000000 0.000000
-21.613224 29.393675 0.692343 0.144536 0.939665 -0.309946 0.000000 1.000000
14.639087 29.393675 17.597075 0.144536 0.939665 -0.309946 0.000000 0.000000
22.581713 22.553272 0.564061 0.144536 0.939665 -0.309946 0.235714 0.027919
22.581713 22.553272 0.564061 0.144536 0.939665 -0.309946 0.000000 1.000000
-13.670598 22.553272 -16.340672 0.144536 0.939665 -0.309946 0.000000 0.000000
-21.613224 29.393675 0.692343 0.144536 0.939665 -0.309946 0.235714 0.017766
14.639087 29.393675 17.597075 0.524003 -0.851711 0.000000 0.666667 0.000000
64.615784 60.140980 5.069767 0.524003 -0.851711 0.000000 1.000000 0.000000
64.615784 60.140980 5.069768 0.524003 -0.851711 0.000000 1.000000 0.500000
64.615784 60.140980 5.069768 -0.538621 0.664449 -0.518021 0.000000 1.000000
22.581713 22.553272 0.564061 -0.538621 0.664449 -0.518021 0.000000 0.000000
14.639087 29.393675 17.597075 -0.538621 0.664449 -0.518021 0.244286 0.027919
-44.141148 60.140980 -45.644428 0.743034 0.664449 0.079623 0.000000 1.000000
-13.670598 22.553272 -16.340672 0.743034 0.664449 0.079623 0.000000 0.000000
-5.727971 15.712867 -33.373688 0.743034 0.664449 0.079623 0.245714 0.020305
-5.727971 15.712867 -33.373688 -0.153417 0.420911 -0.894009 0.333333 1.000000
-44.141148 60.140980 -45.644428 -0.504715 0.687643 -0.521897 0.000000 1.000000
-13.670598 22.553272 -16.340672 0.144536 0.939665 -0.309946 0.000000 1.000000
22.581713 22.553272 0.564061 0.144536 0.939665 -0.309946 0.000000 0.000000
30.524340 15.712867 -16.468956 0.144536 0.939665 -0.309946 0.240000 0.022843
30.524340 15.712867 -16.468956 0.144536 0.939665 -0.309946 0.000000 1.000000
-5.727971 15.712867 -33.373688 0.144536 0.939665 -0.309946 0.000000 0.000000
-13.670598 22.553272 -16.340672 0.144536 0.939665 -0.309946 0.257143 0.017766
22.581713 22.553272 0.564061 -0.666555 0.745415 0.000000 0.666667 0.500000
64.615784 60.140980 5.069768 -0.666555 0.745415 0.000000 1.000000 0.500000
64.615784 60.140980 5.069767 -0.666555 0.745415 0.000000 1.000000 1.000000
64.615784 60.140980 5.069767 -0.538621 0.664449 -0.518021 0.000000 1.000000
30.524340 15.712867 -16.468956 -0.538621 0.664449 -0.518021 0.000000 0.000000
22.581713 22.553272 0.564061 -0.538621 0.664449 -0.518021 0.260000 0.002538
64.615784 60.140980 5.069767 0.814081 -0.297128 0.498947 0.333333 0.000000
3.075567 -45.781734 42.395119 0.814081 -0.297128 0.498947 0.666667 0.000000
11.018192 -52.622139 25.362106 0.814081 -0.297128 0.498947 0.666667 0.500000
11.018192 -52.622139 25.362106 -0.903165 0.429273 0.000000 0.666667 0.500000
64.615784 60.140980 5.069768 -0.903165 0.429273 0.000000 0.333333 0.500000
64.615784 60.140980 5.069767 -0.903165 0.429273 0.000000 0.333333 0.000000
-9.998842 -71.415985 23.109249 0.538621 -0.664449 0.518021 1.000000 0.500000
11.018192 -52.622139 25.362106 0.538621 -0.664449 0.518021 0.666667 0.500000
3.075567 -45.781734 42.395119 0.538621 -0.664449 0.518021 0.666667 0.000000
64.615784 60.140980 5.069768 0.814081 -0.297128 0.498947 0.333333 0.500000
11.018192 -52.622139 25.362106 0.814081 -0.297128 0.498947 0.666667 0.500000
18.960817 -59.462543 8.329091 0.814081 -0.297128 0.498947 0.666667 1.000000
18.960817 -59.462543 8.329091 0.934233 -0.356609 0.000000 0.666667 1.000000
64.615784 60.140980 5.069767 0.934233 -0.356609 0.000000 0.333333 1.000000
64.615784 60.140980 5.069768 0.934233 -0.356609 0.000000 0.333333 0.500000
-9.998842 -71.415985 23.109249 0.538621 -0.664449 0.518021 1.000000 1.000000
18.960817 -59.462543 8.329091 0.538621 -0.664449 0.518021 0.666667 1.000000
11.018192 -52.622139 25.362106 0.538621 -0.664449 0.518021 0.666667 0.500000
-9.998842 -71.415985 23.109249 -0.743034 -0.664449 -0.079623 0.000000 0.000000
-33.176743 -45.781734 25.490387 -0.743034 -0.664449 -0.079623 0.333333 0.000000
-25.234119 -52.622143 8.457375 -0.743034 -0.664449 -0.079623 0.333333 0.500000
-33.176743 -45.781734 25.490387 -0.534928 -0.738182 0.410993 0.333333 0.000000
-44.141148 60.140980 -45.644428 -0.504715 0.687643 -0.521897 0.666667 0.000000
-44.141148 60.140980 -45.644428 -0.504715 0.687643 -0.521897 0.666667 0.500000
-44.141148 60.140980 -45.644428 -0.905484 -0.297128 -0.302896 0.666667 0.500000
-25.234119 -52.622143 8.457375 -0.905484 -0.297128 -0.302896 0.333333 0.500000
-33.176743 -45.781734 25.490387 -0.905484 -0.297128 -0.302896 0.333333 0.000000
-9.998842 -71.415985 23.109249 -0.743034 -0.664449 -0.079623 0.000000 0.500000
-25.234119 -52.622143 8.457375 -0.743034 -0.664449 -0.079623 0.333333 0.500000
-17.291492 -59.462543 -8.575641 -0.743034 -0.664449 -0.079623 0.333333 1.000000
-25.234119 -52.622143 8.457375 -0.427900 -0.892361 0.143406 0.333333 0.500000
-44.141148 60.140980 -45.644428 -0.504715 0.687643 -0.521897 0.666667 0.500000
-44.141148 60.140980 -45.644428 -0.504715 0.687643 -0.521897 0.666667 1.000000
-44.141148 60.140980 -45.644428 -0.905484 -0.297128 -0.302896 0.666667 1.000000
-17.291492 -59.462543 -8.575641 -0.905484 -0.297128 -0.302896 0.333333 1.000000
-25.234119 -52.622143 8.457375 -0.905484 -0.297128 -0.302896 0.333333 0.500000
"resources/models/simple-spaceship/blue.jpg"
3 0 1 2 0
3 3 4 5 0
3 6 7 8 0
3 9 10 11 0
3 12 13 14 0
3 15 16 17 0
3 18 19 20 0
3 20 21 18 0
3 22 23 24 0
3 25 26 27 0
3 28 14 13 0
3 29 30 31 0
3 32 24 23 0
3 33 34 35 0
3 36 37 38 0
3 39 40 41 0
3 42 43 44 0
3 45 46 47 0
3 48 49 50 0
3 51 52 53 0
3 54 55 56 0
3 57 58 59 0
3 60 61 62 0
3 49 48 63 0
3 64 65 66 0
3 61 60 67 0
3 68 69 70 0
3 71 72 73 0
3 74 75 76 0
3 77 78 79 0
3 80 81 82 0
3 83 84 85 0
3 86 87 88 0
3 89 90 72 0
3 91 92 93 0
3 94 95 96 0
3 97 98 99 0
3 100 101 102 0
3 103 104 105 0
3 106 107 108 0
3 109 110 111 0
3 112 113 114 0
3 115 116 117 0
3 118 119 120 0
3 121 122 123 0
3 124 125 126 0
3 127 128 129 0
3 130 131 132 0
3 133 134 135 0
3 136 137 138 0
