ply
format ascii 1.0
comment created by ply_export.py from Blender
element vertex 378
property float32 x
property float32 y
property float32 z
property float32 nx
property float32 ny
property float32 nz
property float32 s
property float32 t
element material 1
property string texture_map
element face 126
property list uint8 int32 vertex_indices
property uint32 material_index
end_header
0.853989 -0.369132 0.528044 0.971149 -0.001844 0.238464 0.742355 0.409522
0.790706 -0.001162 0.788609 0.971149 -0.001844 0.238464 0.772397 0.515745
0.835155 -0.401241 0.604495 0.971149 -0.001844 0.238464 0.754244 0.408550
-0.682049 0.001718 -0.790316 0.086217 0.360995 -0.928574 0.244604 0.478747
-0.808874 0.084473 -0.769919 0.086217 0.360995 -0.928574 0.226317 0.505630
-0.788562 0.465109 -0.620056 0.086217 0.360995 -0.928574 0.248880 0.602638
-0.291414 1.029829 0.009484 -0.134198 0.990646 -0.024712 0.432360 0.751848
-0.367260 1.022997 0.147501 -0.134198 0.990646 -0.024712 0.446012 0.763954
-0.104681 1.060143 0.210655 -0.134198 0.990646 -0.024712 0.498778 0.763650
-0.475451 0.786665 -0.082881 0.319308 -0.943857 0.084714 0.391289 0.698797
-0.482255 0.768502 -0.259602 0.319308 -0.943857 0.084714 0.357833 0.682393
-0.170927 0.907114 0.111291 0.319308 -0.943857 0.084714 0.473190 0.724813
-0.069032 0.868125 0.379852 -0.315331 -0.838878 -0.443678 0.540117 0.729811
0.052419 0.833449 0.359099 -0.315331 -0.838878 -0.443678 0.556411 0.714211
0.315472 0.618075 0.579357 -0.315331 -0.838878 -0.443678 0.644009 0.667104
-0.463827 -0.650170 -0.760600 -0.631447 -0.558332 -0.538090 0.299429 0.320155
-0.566710 -0.635608 -0.654977 -0.631447 -0.558332 -0.538090 0.302285 0.336238
-0.660451 -0.373096 -0.817361 -0.631447 -0.558332 -0.538090 0.251375 0.389692
0.790706 -0.001162 0.788609 -0.326548 -0.254849 0.910175 0.772397 0.515745
0.542480 0.292531 0.781786 -0.326548 -0.254849 0.910175 0.725004 0.595270
0.718440 -0.466233 0.632462 -0.326548 -0.254849 0.910175 0.742262 0.401546
0.658180 -0.448910 0.428429 -0.620426 0.533587 -0.574767 0.694425 0.394056
0.773051 -0.194146 0.540943 -0.620426 0.533587 -0.574767 0.727943 0.454713
0.657319 -0.648665 0.243914 -0.620426 0.533587 -0.574767 0.664513 0.335113
0.344135 0.740354 0.721029 -0.446721 -0.076925 0.891360 0.672134 0.703803
0.214399 0.735948 0.655629 -0.446721 -0.076925 0.891360 0.639411 0.704720
0.542480 0.292531 0.781786 -0.446721 -0.076925 0.891360 0.725004 0.595270
0.542480 0.292531 0.781786 -0.923432 -0.144153 -0.355660 0.725004 0.595270
0.649719 -0.042972 0.639335 -0.923432 -0.144153 -0.355660 0.723156 0.502677
0.718440 -0.466233 0.632462 -0.923432 -0.144153 -0.355660 0.742262 0.401546
0.115209 0.994783 0.513696 0.412466 0.769041 0.488310 0.591507 0.759062
0.344135 0.740354 0.721029 0.412466 0.769041 0.488310 0.672134 0.703803
0.526337 0.684776 0.654656 0.412466 0.769041 0.488310 0.690122 0.677074
0.520371 -0.867916 0.291202 -0.561920 0.702693 0.436427 0.656320 0.295103
0.456638 -0.781273 0.069639 -0.561920 0.702693 0.436427 0.603135 0.302453
0.135489 -0.907922 -0.139938 -0.561920 0.702693 0.436427 0.515863 0.274761
0.649719 -0.042972 0.639335 -0.145207 0.453769 -0.879209 0.723156 0.502677
0.773051 -0.194146 0.540943 -0.145207 0.453769 -0.879209 0.727943 0.454713
0.658180 -0.448910 0.428429 -0.145207 0.453769 -0.879209 0.694425 0.394056
0.718440 -0.466233 0.632462 -0.750012 -0.203362 0.629385 0.742262 0.401546
0.642513 -0.381878 0.569238 -0.750012 -0.203362 0.629385 0.716549 0.420261
0.536902 -0.698172 0.341188 -0.750012 -0.203362 0.629385 0.664449 0.336785
0.853989 -0.369132 0.528044 0.940726 -0.325594 0.094993 0.742355 0.409522
0.835155 -0.401241 0.604495 0.940726 -0.325594 0.094993 0.754244 0.408550
0.734285 -0.770349 0.338282 0.940726 -0.325594 0.094993 0.696998 0.309994
0.526337 0.684776 0.654656 0.795575 0.508745 0.328996 0.690122 0.677074
0.624416 0.428037 0.814490 0.795575 0.508745 0.328996 0.741122 0.624544
0.726162 0.345873 0.695506 0.795575 0.508745 0.328996 0.737112 0.592050
0.214399 0.735948 0.655629 -0.786209 -0.609942 -0.099230 0.639411 0.704720
0.315472 0.618075 0.579357 -0.786209 -0.609942 -0.099230 0.644009 0.667104
0.542480 0.292531 0.781786 -0.786209 -0.609942 -0.099230 0.725004 0.595270
0.718440 -0.466233 0.632462 -0.810881 -0.091254 0.578052 0.742262 0.401546
0.536902 -0.698172 0.341188 -0.810881 -0.091254 0.578052 0.664449 0.336785
0.520371 -0.867916 0.291202 -0.810881 -0.091254 0.578052 0.656320 0.295103
0.536902 -0.698172 0.341188 -0.959831 0.010916 0.280365 0.664449 0.336785
0.456638 -0.781273 0.069639 -0.959831 0.010916 0.280365 0.603135 0.302453
0.520371 -0.867916 0.291202 -0.959831 0.010916 0.280365 0.656320 0.295103
0.115209 0.994783 0.513696 -0.437797 0.297473 0.848436 0.591507 0.759062
0.214399 0.735948 0.655629 -0.437797 0.297473 0.848436 0.639411 0.704720
0.344135 0.740354 0.721029 -0.437797 0.297473 0.848436 0.672134 0.703803
0.315472 0.618075 0.579357 -0.381279 -0.500131 -0.777493 0.644009 0.667104
0.309181 0.769623 0.484957 -0.381279 -0.500131 -0.777493 0.622125 0.695489
0.634345 0.310357 0.620926 -0.381279 -0.500131 -0.777493 0.709426 0.583249
0.835155 -0.401241 0.604495 0.484872 -0.594888 0.641099 0.754244 0.408550
0.718440 -0.466233 0.632462 0.484872 -0.594888 0.641099 0.742262 0.401546
0.734285 -0.770349 0.338282 0.484872 -0.594888 0.641099 0.696998 0.309994
0.214399 0.735948 0.655629 -0.623530 -0.724599 0.293542 0.639411 0.704720
-0.069032 0.868125 0.379852 -0.623530 -0.724599 0.293542 0.540117 0.729811
0.315472 0.618075 0.579357 -0.623530 -0.724599 0.293542 0.644009 0.667104
0.634345 0.310357 0.620926 0.398958 0.249575 -0.882352 0.709426 0.583249
0.853989 -0.369132 0.528044 0.398958 0.249575 -0.882352 0.742355 0.409522
0.773051 -0.194146 0.540943 0.398958 0.249575 -0.882352 0.727943 0.454713
0.135489 -0.907922 -0.139938 0.058030 0.953376 0.296154 0.515863 0.274761
-0.020274 -0.809641 -0.425802 0.058030 0.953376 0.296154 0.435815 0.284874
-0.138875 -0.815154 -0.384813 0.058030 0.953376 0.296154 0.424624 0.292546
0.658180 -0.448910 0.428429 -0.908689 0.389872 0.149279 0.694425 0.394056
0.456638 -0.781273 0.069639 -0.908689 0.389872 0.149279 0.603135 0.302453
0.536902 -0.698172 0.341188 -0.908689 0.389872 0.149279 0.664449 0.336785
0.657319 -0.648665 0.243914 0.084874 0.743426 -0.663411 0.664513 0.335113
0.387718 -0.987726 -0.170533 0.084874 0.743426 -0.663411 0.552194 0.241464
0.456638 -0.781273 0.069639 0.084874 0.743426 -0.663411 0.603135 0.302453
0.520371 -0.867916 0.291202 -0.264919 0.952833 0.148080 0.656320 0.295103
0.135489 -0.907922 -0.139938 -0.264919 0.952833 0.148080 0.515863 0.274761
-0.198470 -0.954407 -0.438286 -0.264919 0.952833 0.148080 0.408301 0.259800
0.642513 -0.381878 0.569238 -0.798887 0.503733 -0.328684 0.716549 0.420261
0.658180 -0.448910 0.428429 -0.798887 0.503733 -0.328684 0.694425 0.394056
0.536902 -0.698172 0.341188 -0.798887 0.503733 -0.328684 0.664449 0.336785
-0.688840 0.060180 -0.581428 0.969266 -0.181059 0.166559 0.280961 0.507381
-0.656777 0.128965 -0.693241 0.969266 -0.181059 0.166559 0.263807 0.513582
-0.624394 0.473873 -0.506753 0.969266 -0.181059 0.166559 0.295882 0.604384
-0.462159 -0.410401 -0.721681 0.147334 0.238477 0.959907 0.301577 0.377877
-0.294739 -0.646097 -0.688822 0.147334 0.238477 0.959907 0.339619 0.317619
-0.682049 0.001718 -0.790316 0.147334 0.238477 0.959907 0.244604 0.478747
-0.104681 1.060143 0.210655 0.637885 0.704591 -0.310893 0.498778 0.763650
0.115209 0.994783 0.513696 0.637885 0.704591 -0.310893 0.591507 0.759062
0.526337 0.684776 0.654656 0.637885 0.704591 -0.310893 0.690122 0.677074
-0.138875 -0.815154 -0.384813 0.817620 0.566231 -0.104312 0.424624 0.292546
-0.294739 -0.646097 -0.688822 0.817620 0.566231 -0.104312 0.339619 0.317619
-0.462159 -0.410401 -0.721681 0.817620 0.566231 -0.104312 0.301577 0.377877
-0.198470 -0.954407 -0.438286 -0.666125 -0.001325 0.745839 0.408301 0.259800
0.135489 -0.907922 -0.139938 -0.666125 -0.001325 0.745839 0.515863 0.274761
-0.138875 -0.815154 -0.384813 -0.666125 -0.001325 0.745839 0.424624 0.292546
-0.020274 -0.809641 -0.425802 0.746795 0.405347 -0.527248 0.435815 0.284874
-0.125137 -0.851124 -0.606222 0.746795 0.405347 -0.527248 0.386552 0.267830
-0.294739 -0.646097 -0.688822 0.746795 0.405347 -0.527248 0.339619 0.317619
-0.294739 -0.646097 -0.688822 0.388483 0.088566 -0.917190 0.339619 0.317619
-0.660451 -0.373096 -0.817361 0.388483 0.088566 -0.917190 0.251375 0.389692
-0.682049 0.001718 -0.790316 0.388483 0.088566 -0.917190 0.244604 0.478747
-0.832495 0.005985 -0.651378 -0.381490 -0.163139 0.909863 0.246282 0.497252
-0.566710 -0.635608 -0.654977 -0.381490 -0.163139 0.909863 0.302285 0.336238
-0.688840 0.060180 -0.581428 -0.381490 -0.163139 0.909863 0.280961 0.507381
0.315472 0.618075 0.579357 -0.383695 -0.502286 -0.774911 0.644009 0.667104
0.634345 0.310357 0.620926 -0.383695 -0.502286 -0.774911 0.709426 0.583249
0.513704 0.345498 0.657884 -0.383695 -0.502286 -0.774911 0.696257 0.600068
-0.788562 0.465109 -0.620056 -0.886214 0.388913 -0.251735 0.248880 0.602638
-0.835791 0.446641 -0.482322 -0.886214 0.388913 -0.251735 0.267303 0.610601
-0.728937 0.750299 -0.389362 -0.886214 0.388913 -0.251735 0.294828 0.681496
0.218686 -1.075391 -0.169967 -0.275679 -0.961238 -0.004822 0.527291 0.229960
-0.198470 -0.954407 -0.438286 -0.275679 -0.961238 -0.004822 0.408301 0.259800
-0.128678 -0.973985 -0.525604 -0.275679 -0.961238 -0.004822 0.403674 0.245548
-0.572515 0.801139 -0.363258 0.072915 0.824643 -0.560934 0.323486 0.687086
-0.548952 0.951450 -0.139220 0.072915 0.824643 -0.560934 0.365450 0.736341
-0.291414 1.029829 0.009484 0.072915 0.824643 -0.560934 0.432360 0.751848
-0.020274 -0.809641 -0.425802 0.110348 0.891574 0.439225 0.435815 0.284874
-0.294739 -0.646097 -0.688822 0.110348 0.891574 0.439225 0.339619 0.317619
-0.138875 -0.815154 -0.384813 0.110348 0.891574 0.439225 0.424624 0.292546
0.657319 -0.648665 0.243914 -0.890495 0.223937 0.396070 0.664513 0.335113
0.853989 -0.369132 0.528044 -0.890495 0.223937 0.396070 0.742355 0.409522
0.387718 -0.987726 -0.170533 -0.890495 0.223937 0.396070 0.552194 0.241464
0.542480 0.292531 0.781786 -0.796772 -0.600040 -0.071459 0.725004 0.595270
0.315472 0.618075 0.579357 -0.796772 -0.600040 -0.071459 0.644009 0.667104
0.513704 0.345498 0.657884 -0.796772 -0.600040 -0.071459 0.696257 0.600068
0.649719 -0.042972 0.639335 -0.989885 0.048614 -0.133280 0.723156 0.502677
0.658180 -0.448910 0.428429 -0.989885 0.048614 -0.133280 0.694425 0.394056
0.642513 -0.381878 0.569238 -0.989885 0.048614 -0.133280 0.716549 0.420261
0.456638 -0.781273 0.069639 0.578984 0.528739 -0.620655 0.603135 0.302453
0.387718 -0.987726 -0.170533 0.578984 0.528739 -0.620655 0.552194 0.241464
0.226773 -0.866457 -0.217362 0.578984 0.528739 -0.620655 0.515140 0.274134
-0.586386 0.854174 -0.060848 -0.518940 -0.580386 0.627578 0.376179 0.721491
-0.069032 0.868125 0.379852 -0.518940 -0.580386 0.627578 0.540117 0.729811
-0.113619 0.950404 0.419075 -0.518940 -0.580386 0.627578 0.538449 0.753752
-0.125137 -0.851124 -0.606222 0.054519 -0.548896 -0.834111 0.386552 0.267830
-0.128678 -0.973985 -0.525604 0.054519 -0.548896 -0.834111 0.403674 0.245548
-0.463827 -0.650170 -0.760600 0.054519 -0.548896 -0.834111 0.299429 0.320155
-0.808874 0.084473 -0.769919 -0.985546 0.054204 -0.160501 0.226317 0.505630
-0.832495 0.005985 -0.651378 -0.985546 0.054204 -0.160501 0.246282 0.497252
-0.835791 0.446641 -0.482322 -0.985546 0.054204 -0.160501 0.267303 0.610601
-0.125137 -0.851124 -0.606222 0.391276 -0.046608 -0.919093 0.386552 0.267830
-0.463827 -0.650170 -0.760600 0.391276 -0.046608 -0.919093 0.299429 0.320155
-0.294739 -0.646097 -0.688822 0.391276 -0.046608 -0.919093 0.339619 0.317619
0.649719 -0.042972 0.639335 -0.671573 -0.067665 -0.737842 0.723156 0.502677
0.634345 0.310357 0.620926 -0.671573 -0.067665 -0.737842 0.709426 0.583249
0.773051 -0.194146 0.540943 -0.671573 -0.067665 -0.737842 0.727943 0.454713
-0.566710 -0.635608 -0.654977 -0.130679 -0.126875 0.983273 0.302285 0.336238
-0.573037 -0.351774 -0.619194 -0.130679 -0.126875 0.983273 0.301595 0.404257
-0.688840 0.060180 -0.581428 -0.130679 -0.126875 0.983273 0.280961 0.507381
-0.128678 -0.973985 -0.525604 -0.495165 -0.784073 -0.374220 0.403674 0.245548
-0.566710 -0.635608 -0.654977 -0.495165 -0.784073 -0.374220 0.302285 0.336238
-0.463827 -0.650170 -0.760600 -0.495165 -0.784073 -0.374220 0.299429 0.320155
-0.069032 0.868125 0.379852 -0.279639 -0.959531 -0.033203 0.540117 0.729811
-0.170927 0.907114 0.111291 -0.279639 -0.959531 -0.033203 0.473190 0.724813
0.052419 0.833449 0.359099 -0.279639 -0.959531 -0.033203 0.556411 0.714211
0.634345 0.310357 0.620926 0.536731 0.282192 -0.795165 0.709426 0.583249
0.726162 0.345873 0.695506 0.536731 0.282192 -0.795165 0.737112 0.592050
0.853989 -0.369132 0.528044 0.536731 0.282192 -0.795165 0.742355 0.409522
-0.690502 0.463443 -0.392379 0.820057 -0.571636 0.027180 0.306783 0.613487
-0.482255 0.768502 -0.259602 0.820057 -0.571636 0.027180 0.357833 0.682393
-0.475451 0.786665 -0.082881 0.820057 -0.571636 0.027180 0.391289 0.698797
0.135489 -0.907922 -0.139938 -0.102575 0.922169 0.372937 0.515863 0.274761
0.226773 -0.866457 -0.217362 -0.102575 0.922169 0.372937 0.515140 0.274134
-0.020274 -0.809641 -0.425802 -0.102575 0.922169 0.372937 0.435815 0.284874
0.437454 -1.004977 0.071400 -0.429381 -0.684688 0.588926 0.605381 0.252203
0.520371 -0.867916 0.291202 -0.429381 -0.684688 0.588926 0.656320 0.295103
0.218686 -1.075391 -0.169967 -0.429381 -0.684688 0.588926 0.527291 0.229960
-0.656777 0.128965 -0.693241 0.965569 0.006629 -0.260064 0.263807 0.513582
-0.682049 0.001718 -0.790316 0.965569 0.006629 -0.260064 0.244604 0.478747
-0.572515 0.801139 -0.363258 0.965569 0.006629 -0.260064 0.323486 0.687086
0.726162 0.345873 0.695506 0.983716 0.179172 -0.014115 0.737112 0.592050
0.790706 -0.001162 0.788609 0.983716 0.179172 -0.014115 0.772397 0.515745
0.853989 -0.369132 0.528044 0.983716 0.179172 -0.014115 0.742355 0.409522
-0.170927 0.907114 0.111291 0.716022 0.134781 -0.684943 0.473190 0.724813
-0.291414 1.029829 0.009484 0.716022 0.134781 -0.684943 0.432360 0.751848
-0.104681 1.060143 0.210655 0.716022 0.134781 -0.684943 0.498778 0.763650
0.226773 -0.866457 -0.217362 0.604634 0.600295 -0.523511 0.515140 0.274134
0.387718 -0.987726 -0.170533 0.604634 0.600295 -0.523511 0.552194 0.241464
-0.125137 -0.851124 -0.606222 0.604634 0.600295 -0.523511 0.386552 0.267830
0.718440 -0.466233 0.632462 0.154239 -0.682783 0.714155 0.742262 0.401546
0.520371 -0.867916 0.291202 0.154239 -0.682783 0.714155 0.656320 0.295103
0.734285 -0.770349 0.338282 0.154239 -0.682783 0.714155 0.696998 0.309994
-0.367260 1.022997 0.147501 -0.371819 0.749568 0.547630 0.446012 0.763954
-0.113619 0.950404 0.419075 -0.371819 0.749568 0.547630 0.538449 0.753752
0.115209 0.994783 0.513696 -0.371819 0.749568 0.547630 0.591507 0.759062
-0.660451 -0.373096 -0.817361 -0.920741 -0.380952 -0.084331 0.251375 0.389692
-0.566710 -0.635608 -0.654977 -0.920741 -0.380952 -0.084331 0.302285 0.336238
-0.832495 0.005985 -0.651378 -0.920741 -0.380952 -0.084331 0.246282 0.497252
-0.294739 -0.646097 -0.688822 0.387493 0.086970 -0.917761 0.339619 0.317619
-0.463827 -0.650170 -0.760600 0.387493 0.086970 -0.917761 0.299429 0.320155
-0.660451 -0.373096 -0.817361 0.387493 0.086970 -0.917761 0.251375 0.389692
-0.128678 -0.973985 -0.525604 -0.542980 -0.800227 -0.254577 0.403674 0.245548
-0.198470 -0.954407 -0.438286 -0.542980 -0.800227 -0.254577 0.408301 0.259800
-0.566710 -0.635608 -0.654977 -0.542980 -0.800227 -0.254577 0.302285 0.336238
-0.688840 0.060180 -0.581428 0.853383 -0.218382 0.473336 0.280961 0.507381
-0.624394 0.473873 -0.506753 0.853383 -0.218382 0.473336 0.295882 0.604384
-0.690502 0.463443 -0.392379 0.853383 -0.218382 0.473336 0.306783 0.613487
0.790706 -0.001162 0.788609 -0.178052 -0.127820 0.975684 0.772397 0.515745
0.624416 0.428037 0.814490 -0.178052 -0.127820 0.975684 0.741122 0.624544
0.542480 0.292531 0.781786 -0.178052 -0.127820 0.975684 0.725004 0.595270
-0.728937 0.750299 -0.389362 -0.918073 0.222654 0.327974 0.294828 0.681496
-0.835791 0.446641 -0.482322 -0.918073 0.222654 0.327974 0.267303 0.610601
-0.586386 0.854174 -0.060848 -0.918073 0.222654 0.327974 0.376179 0.721491
-0.832495 0.005985 -0.651378 -0.269785 -0.409642 0.871441 0.246282 0.497252
-0.688840 0.060180 -0.581428 -0.269785 -0.409642 0.871441 0.280961 0.507381
-0.690502 0.463443 -0.392379 -0.269785 -0.409642 0.871441 0.306783 0.613487
0.387718 -0.987726 -0.170533 0.454352 -0.877067 -0.155943 0.552194 0.241464
0.437454 -1.004977 0.071400 0.454352 -0.877067 -0.155943 0.605381 0.252203
0.218686 -1.075391 -0.169967 0.454352 -0.877067 -0.155943 0.527291 0.229960
0.718440 -0.466233 0.632462 -0.714305 -0.127150 0.688187 0.742262 0.401546
0.649719 -0.042972 0.639335 -0.714305 -0.127150 0.688187 0.723156 0.502677
0.642513 -0.381878 0.569238 -0.714305 -0.127150 0.688187 0.716549 0.420261
-0.690502 0.463443 -0.392379 -0.211157 -0.599069 0.772353 0.306783 0.613487
-0.475451 0.786665 -0.082881 -0.211157 -0.599069 0.772353 0.391289 0.698797
-0.586386 0.854174 -0.060848 -0.211157 -0.599069 0.772353 0.376179 0.721491
-0.656777 0.128965 -0.693241 0.793122 -0.345621 0.501502 0.263807 0.513582
-0.572515 0.801139 -0.363258 0.793122 -0.345621 0.501502 0.323486 0.687086
-0.624394 0.473873 -0.506753 0.793122 -0.345621 0.501502 0.295882 0.604384
0.734285 -0.770349 0.338282 0.297807 -0.856434 0.421701 0.696998 0.309994
0.520371 -0.867916 0.291202 0.297807 -0.856434 0.421701 0.656320 0.295103
0.437454 -1.004977 0.071400 0.297807 -0.856434 0.421701 0.605381 0.252203
0.387718 -0.987726 -0.170533 0.375430 -0.727592 -0.574162 0.552194 0.241464
0.218686 -1.075391 -0.169967 0.375430 -0.727592 -0.574162 0.527291 0.229960
-0.128678 -0.973985 -0.525604 0.375430 -0.727592 -0.574162 0.403674 0.245548
-0.138875 -0.815154 -0.384813 -0.090702 0.593273 0.799875 0.424624 0.292546
-0.462159 -0.410401 -0.721681 -0.090702 0.593273 0.799875 0.301577 0.377877
-0.374200 -0.650979 -0.533268 -0.090702 0.593273 0.799875 0.355904 0.331604
0.734285 -0.770349 0.338282 0.709809 -0.677094 -0.194201 0.696998 0.309994
0.437454 -1.004977 0.071400 0.709809 -0.677094 -0.194201 0.605381 0.252203
0.387718 -0.987726 -0.170533 0.709809 -0.677094 -0.194201 0.552194 0.241464
-0.170927 0.907114 0.111291 0.641326 0.202846 -0.739969 0.473190 0.724813
-0.104681 1.060143 0.210655 0.641326 0.202846 -0.739969 0.498778 0.763650
0.526337 0.684776 0.654656 0.641326 0.202846 -0.739969 0.690122 0.677074
0.513704 0.345498 0.657884 -0.309028 -0.062889 -0.948971 0.696257 0.600068
0.634345 0.310357 0.620926 -0.309028 -0.062889 -0.948971 0.709426 0.583249
0.649719 -0.042972 0.639335 -0.309028 -0.062889 -0.948971 0.723156 0.502677
-0.573037 -0.351774 -0.619194 0.710355 0.136383 0.690504 0.301595 0.404257
-0.462159 -0.410401 -0.721681 0.710355 0.136383 0.690504 0.301577 0.377877
-0.688840 0.060180 -0.581428 0.710355 0.136383 0.690504 0.280961 0.507381
0.218686 -1.075391 -0.169967 -0.557444 -0.557281 0.615381 0.527291 0.229960
0.520371 -0.867916 0.291202 -0.557444 -0.557281 0.615381 0.656320 0.295103
-0.198470 -0.954407 -0.438286 -0.557444 -0.557281 0.615381 0.408301 0.259800
-0.198470 -0.954407 -0.438286 -0.567620 -0.072011 0.820135 0.408301 0.259800
-0.138875 -0.815154 -0.384813 -0.567620 -0.072011 0.820135 0.424624 0.292546
-0.374200 -0.650979 -0.533268 -0.567620 -0.072011 0.820135 0.355904 0.331604
-0.624394 0.473873 -0.506753 0.768560 0.150784 -0.621755 0.295882 0.604384
-0.572515 0.801139 -0.363258 0.768560 0.150784 -0.621755 0.323486 0.687086
-0.482255 0.768502 -0.259602 0.768560 0.150784 -0.621755 0.357833 0.682393
-0.832495 0.005985 -0.651378 -0.471955 -0.318863 0.821940 0.246282 0.497252
-0.690502 0.463443 -0.392379 -0.471955 -0.318863 0.821940 0.306783 0.613487
-0.835791 0.446641 -0.482322 -0.471955 -0.318863 0.821940 0.267303 0.610601
-0.462159 -0.410401 -0.721681 0.859099 0.287667 0.423316 0.301577 0.377877
-0.656777 0.128965 -0.693241 0.859099 0.287667 0.423316 0.263807 0.513582
-0.688840 0.060180 -0.581428 0.859099 0.287667 0.423316 0.280961 0.507381
-0.788562 0.465109 -0.620056 -0.079018 0.636881 -0.766902 0.248880 0.602638
-0.728937 0.750299 -0.389362 -0.079018 0.636881 -0.766902 0.294828 0.681496
-0.572515 0.801139 -0.363258 -0.079018 0.636881 -0.766902 0.323486 0.687086
-0.482255 0.768502 -0.259602 0.726352 0.158272 -0.668852 0.357833 0.682393
-0.291414 1.029829 0.009484 0.726352 0.158272 -0.668852 0.432360 0.751848
-0.170927 0.907114 0.111291 0.726352 0.158272 -0.668852 0.473190 0.724813
-0.170927 0.907114 0.111291 -0.609734 0.023980 0.792243 0.473190 0.724813
0.526337 0.684776 0.654656 -0.609734 0.023980 0.792243 0.690122 0.677074
0.309181 0.769623 0.484957 -0.609734 0.023980 0.792243 0.622125 0.695489
-0.198470 -0.954407 -0.438286 -0.536466 -0.046931 0.842616 0.408301 0.259800
-0.374200 -0.650979 -0.533268 -0.536466 -0.046931 0.842616 0.355904 0.331604
-0.566710 -0.635608 -0.654977 -0.536466 -0.046931 0.842616 0.302285 0.336238
-0.586386 0.854174 -0.060848 -0.385555 -0.789453 0.477610 0.376179 0.721491
-0.475451 0.786665 -0.082881 -0.385555 -0.789453 0.477610 0.391289 0.698797
-0.069032 0.868125 0.379852 -0.385555 -0.789453 0.477610 0.540117 0.729811
0.052419 0.833449 0.359099 -0.179736 -0.975358 -0.127949 0.556411 0.714211
-0.170927 0.907114 0.111291 -0.179736 -0.975358 -0.127949 0.473190 0.724813
0.309181 0.769623 0.484957 -0.179736 -0.975358 -0.127949 0.622125 0.695489
0.309181 0.769623 0.484957 0.657527 0.304630 -0.689100 0.622125 0.695489
0.526337 0.684776 0.654656 0.657527 0.304630 -0.689100 0.690122 0.677074
0.726162 0.345873 0.695506 0.657527 0.304630 -0.689100 0.737112 0.592050
0.726162 0.345873 0.695506 0.816845 0.286280 0.500808 0.737112 0.592050
0.624416 0.428037 0.814490 0.816845 0.286280 0.500808 0.741122 0.624544
0.790706 -0.001162 0.788609 0.816845 0.286280 0.500808 0.772397 0.515745
0.226773 -0.866457 -0.217362 0.560751 0.674019 -0.480891 0.515140 0.274134
-0.125137 -0.851124 -0.606222 0.560751 0.674019 -0.480891 0.386552 0.267830
-0.020274 -0.809641 -0.425802 0.560751 0.674019 -0.480891 0.435815 0.284874
-0.104681 1.060143 0.210655 -0.213490 0.911518 0.351506 0.498778 0.763650
-0.367260 1.022997 0.147501 -0.213490 0.911518 0.351506 0.446012 0.763954
0.115209 0.994783 0.513696 -0.213490 0.911518 0.351506 0.591507 0.759062
-0.832495 0.005985 -0.651378 -0.901345 -0.256165 -0.349223 0.246282 0.497252
-0.808874 0.084473 -0.769919 -0.901345 -0.256165 -0.349223 0.226317 0.505630
-0.660451 -0.373096 -0.817361 -0.901345 -0.256165 -0.349223 0.251375 0.389692
0.456638 -0.781273 0.069639 -0.387283 0.921228 0.036756 0.603135 0.302453
0.226773 -0.866457 -0.217362 -0.387283 0.921228 0.036756 0.515140 0.274134
0.135489 -0.907922 -0.139938 -0.387283 0.921228 0.036756 0.515863 0.274761
-0.808874 0.084473 -0.769919 -0.939178 0.168040 -0.299513 0.226317 0.505630
-0.835791 0.446641 -0.482322 -0.939178 0.168040 -0.299513 0.267303 0.610601
-0.788562 0.465109 -0.620056 -0.939178 0.168040 -0.299513 0.248880 0.602638
0.309181 0.769623 0.484957 0.579295 0.174413 -0.796240 0.622125 0.695489
0.726162 0.345873 0.695506 0.579295 0.174413 -0.796240 0.737112 0.592050
0.634345 0.310357 0.620926 0.579295 0.174413 -0.796240 0.709426 0.583249
-0.113619 0.950404 0.419075 -0.690668 -0.580114 0.431793 0.538449 0.753752
-0.069032 0.868125 0.379852 -0.690668 -0.580114 0.431793 0.540117 0.729811
0.214399 0.735948 0.655629 -0.690668 -0.580114 0.431793 0.639411 0.704720
0.052419 0.833449 0.359099 0.278003 -0.499536 -0.820474 0.556411 0.714211
0.309181 0.769623 0.484957 0.278003 -0.499536 -0.820474 0.622125 0.695489
0.315472 0.618075 0.579357 0.278003 -0.499536 -0.820474 0.644009 0.667104
0.853989 -0.369132 0.528044 0.821344 0.024498 -0.569906 0.742355 0.409522
0.734285 -0.770349 0.338282 0.821344 0.024498 -0.569906 0.696998 0.309994
0.387718 -0.987726 -0.170533 0.821344 0.024498 -0.569906 0.552194 0.241464
-0.548952 0.951450 -0.139220 -0.754601 0.562554 0.337803 0.365450 0.736341
-0.586386 0.854174 -0.060848 -0.754601 0.562554 0.337803 0.376179 0.721491
-0.367260 1.022997 0.147501 -0.754601 0.562554 0.337803 0.446012 0.763954
0.344135 0.740354 0.721029 -0.338552 -0.022324 0.940683 0.672134 0.703803
0.542480 0.292531 0.781786 -0.338552 -0.022324 0.940683 0.725004 0.595270
0.624416 0.428037 0.814490 -0.338552 -0.022324 0.940683 0.741122 0.624544
0.115209 0.994783 0.513696 -0.414040 0.310534 0.855652 0.591507 0.759062
-0.113619 0.950404 0.419075 -0.414040 0.310534 0.855652 0.538449 0.753752
0.214399 0.735948 0.655629 -0.414040 0.310534 0.855652 0.639411 0.704720
-0.475451 0.786665 -0.082881 0.514474 -0.799044 -0.311200 0.391289 0.698797
-0.170927 0.907114 0.111291 0.514474 -0.799044 -0.311200 0.473190 0.724813
-0.069032 0.868125 0.379852 0.514474 -0.799044 -0.311200 0.540117 0.729811
-0.367260 1.022997 0.147501 -0.718022 0.078466 0.691584 0.446012 0.763954
-0.586386 0.854174 -0.060848 -0.718022 0.078466 0.691584 0.376179 0.721491
-0.113619 0.950404 0.419075 -0.718022 0.078466 0.691584 0.538449 0.753752
0.513704 0.345498 0.657884 -0.939947 -0.332737 0.076062 0.696257 0.600068
0.649719 -0.042972 0.639335 -0.939947 -0.332737 0.076062 0.723156 0.502677
0.542480 0.292531 0.781786 -0.939947 -0.332737 0.076062 0.725004 0.595270
-0.566710 -0.635608 -0.654977 -0.537366 -0.117267 0.835156 0.302285 0.336238
-0.374200 -0.650979 -0.533268 -0.537366 -0.117267 0.835156 0.355904 0.331604
-0.573037 -0.351774 -0.619194 -0.537366 -0.117267 0.835156 0.301595 0.404257
-0.690502 0.463443 -0.392379 0.697842 -0.627046 0.346165 0.306783 0.613487
-0.624394 0.473873 -0.506753 0.697842 -0.627046 0.346165 0.295882 0.604384
-0.482255 0.768502 -0.259602 0.697842 -0.627046 0.346165 0.357833 0.682393
-0.682049 0.001718 -0.790316 0.380255 0.394722 -0.836421 0.244604 0.478747
-0.788562 0.465109 -0.620056 0.380255 0.394722 -0.836421 0.248880 0.602638
-0.572515 0.801139 -0.363258 0.380255 0.394722 -0.836421 0.323486 0.687086
-0.660451 -0.373096 -0.817361 -0.117123 0.064756 -0.991004 0.251375 0.389692
-0.808874 0.084473 -0.769919 -0.117123 0.064756 -0.991004 0.226317 0.505630
-0.682049 0.001718 -0.790316 -0.117123 0.064756 -0.991004 0.244604 0.478747
-0.728937 0.750299 -0.389362 -0.843790 0.493890 0.209977 0.294828 0.681496
-0.586386 0.854174 -0.060848 -0.843790 0.493890 0.209977 0.376179 0.721491
-0.548952 0.951450 -0.139220 -0.843790 0.493890 0.209977 0.365450 0.736341
-0.374200 -0.650979 -0.533268 0.695904 0.582917 0.419433 0.355904 0.331604
-0.462159 -0.410401 -0.721681 0.695904 0.582917 0.419433 0.301577 0.377877
-0.573037 -0.351774 -0.619194 0.695904 0.582917 0.419433 0.301595 0.404257
-0.548952 0.951450 -0.139220 -0.244109 0.965897 -0.086338 0.365450 0.736341
-0.367260 1.022997 0.147501 -0.244109 0.965897 -0.086338 0.446012 0.763954
-0.291414 1.029829 0.009484 -0.244109 0.965897 -0.086338 0.432360 0.751848
0.658180 -0.448910 0.428429 0.186856 0.666142 -0.722039 0.694425 0.394056
0.657319 -0.648665 0.243914 0.186856 0.666142 -0.722039 0.664513 0.335113
0.456638 -0.781273 0.069639 0.186856 0.666142 -0.722039 0.603135 0.302453
-0.572515 0.801139 -0.363258 -0.179044 0.825609 -0.535083 0.323486 0.687086
-0.728937 0.750299 -0.389362 -0.179044 0.825609 -0.535083 0.294828 0.681496
-0.548952 0.951450 -0.139220 -0.179044 0.825609 -0.535083 0.365450 0.736341
0.773051 -0.194146 0.540943 0.593743 0.328766 -0.734426 0.727943 0.454713
0.853989 -0.369132 0.528044 0.593743 0.328766 -0.734426 0.742355 0.409522
0.657319 -0.648665 0.243914 0.593743 0.328766 -0.734426 0.664513 0.335113
-0.462159 -0.410401 -0.721681 0.749013 0.301376 -0.590044 0.301577 0.377877
-0.682049 0.001718 -0.790316 0.749013 0.301376 -0.590044 0.244604 0.478747
-0.656777 0.128965 -0.693241 0.749013 0.301376 -0.590044 0.263807 0.513582
0.835155 -0.401241 0.604495 0.396830 -0.346977 0.849784 0.754244 0.408550
0.790706 -0.001162 0.788609 0.396830 -0.346977 0.849784 0.772397 0.515745
0.718440 -0.466233 0.632462 0.396830 -0.346977 0.849784 0.742262 0.401546
-0.835791 0.446641 -0.482322 -0.402161 -0.527686 0.748207 0.267303 0.610601
-0.690502 0.463443 -0.392379 -0.402161 -0.527686 0.748207 0.306783 0.613487
-0.586386 0.854174 -0.060848 -0.402161 -0.527686 0.748207 0.376179 0.721491
-0.482255 0.768502 -0.259602 0.765461 0.096150 -0.636258 0.357833 0.682393
-0.572515 0.801139 -0.363258 0.765461 0.096150 -0.636258 0.323486 0.687086
-0.291414 1.029829 0.009484 0.765461 0.096150 -0.636258 0.432360 0.751848
0.526337 0.684776 0.654656 0.429115 0.589816 0.684089 0.690122 0.677074
0.344135 0.740354 0.721029 0.429115 0.589816 0.684089 0.672134 0.703803
0.624416 0.428037 0.814490 0.429115 0.589816 0.684089 0.741122 0.624544
0.387718 -0.987726 -0.170533 0.485200 -0.489441 -0.724589 0.552194 0.241464
-0.128678 -0.973985 -0.525604 0.485200 -0.489441 -0.724589 0.403674 0.245548
-0.125137 -0.851124 -0.606222 0.485200 -0.489441 -0.724589 0.386552 0.267830
"resources/models/portals/aurora.png"
3 0 1 2 0
3 3 4 5 0
3 6 7 8 0
3 9 10 11 0
3 12 13 14 0
3 15 16 17 0
3 18 19 20 0
3 21 22 23 0
3 24 25 26 0
3 27 28 29 0
3 30 31 32 0
3 33 34 35 0
3 36 37 38 0
3 39 40 41 0
3 42 43 44 0
3 45 46 47 0
3 48 49 50 0
3 51 52 53 0
3 54 55 56 0
3 57 58 59 0
3 60 61 62 0
3 63 64 65 0
3 66 67 68 0
3 69 70 71 0
3 72 73 74 0
3 75 76 77 0
3 78 79 80 0
3 81 82 83 0
3 84 85 86 0
3 87 88 89 0
3 90 91 92 0
3 93 94 95 0
3 96 97 98 0
3 99 100 101 0
3 102 103 104 0
3 105 106 107 0
3 108 109 110 0
3 111 112 113 0
3 114 115 116 0
3 117 118 119 0
3 120 121 122 0
3 123 124 125 0
3 126 127 128 0
3 129 130 131 0
3 132 133 134 0
3 135 136 137 0
3 138 139 140 0
3 141 142 143 0
3 144 145 146 0
3 147 148 149 0
3 150 151 152 0
3 153 154 155 0
3 156 157 158 0
3 159 160 161 0
3 162 163 164 0
3 165 166 167 0
3 168 169 170 0
3 171 172 173 0
3 174 175 176 0
3 177 178 179 0
3 180 181 182 0
3 183 184 185 0
3 186 187 188 0
3 189 190 191 0
3 192 193 194 0
3 195 196 197 0
3 198 199 200 0
3 201 202 203 0
3 204 205 206 0
3 207 208 209 0
3 210 211 212 0
3 213 214 215 0
3 216 217 218 0
3 219 220 221 0
3 222 223 224 0
3 225 226 227 0
3 228 229 230 0
3 231 232 233 0
3 234 235 236 0
3 237 238 239 0
3 240 241 242 0
3 243 244 245 0
3 246 247 248 0
3 249 250 251 0
3 252 253 254 0
3 255 256 257 0
3 258 259 260 0
3 261 262 263 0
3 264 265 266 0
3 267 268 269 0
3 270 271 272 0
3 273 274 275 0
3 276 277 278 0
3 279 280 281 0
3 282 283 284 0
3 285 286 287 0
3 288 289 290 0
3 291 292 293 0
3 294 295 296 0
3 297 298 299 0
3 300 301 302 0
3 303 304 305 0
3 306 307 308 0
3 309 310 311 0
3 312 313 314 0
3 315 316 317 0
3 318 319 320 0
3 321 322 323 0
3 324 325 326 0
3 327 328 329 0
3 330 331 332 0
3 333 334 335 0
3 336 337 338 0
3 339 340 341 0
3 342 343 344 0
3 345 346 347 0
3 348 349 350 0
3 351 352 353 0
3 354 355 356 0
3 357 358 359 0
3 360 361 362 0
3 363 364 365 0
3 366 367 368 0
3 369 370 371 0
3 372 373 374 0
3 375 376 377 0
