ply
format ascii 1.0
comment created by ply_export.py from Blender
element vertex 120
property float32 x
property float32 y
property float32 z
property float32 nx
property float32 ny
property float32 nz
property float32 s
property float32 t
element material 2
property string texture_map
element face 40
property list uint8 int32 vertex_indices
property uint32 material_index
end_header
-417.975891 68.031258 173.953873 0.693765 0.000027 0.720201 0.000000 0.802733
-417.976562 105.781258 173.953125 0.693765 0.000027 0.720201 0.447197 1.000000
-439.437500 141.031250 194.625000 0.693765 0.000027 0.720201 0.999759 0.784887
-439.437500 141.031250 194.625000 -0.549744 -0.645572 0.530111 0.999759 0.784887
-417.976562 105.781258 173.953125 -0.549744 -0.645572 0.530111 0.447197 1.000000
-439.015625 141.031250 195.062500 -0.549744 -0.645572 0.530111 1.000000 0.783065
-439.437500 141.031250 194.625000 0.708148 -0.000000 0.706064 0.999759 0.784887
-460.601593 105.783333 215.851578 0.708148 -0.000000 0.706064 0.718200 0.197275
-460.601624 68.031250 215.851608 0.708148 -0.000000 0.706064 0.270978 0.000000
-460.601624 68.031250 215.851608 0.700984 0.004142 0.713165 0.270978 0.000000
-417.975891 68.031258 173.953873 0.700984 0.004142 0.713165 0.000000 0.802733
-439.437500 141.031250 194.625000 0.700984 0.004142 0.713165 0.999759 0.784887
-439.015625 141.031250 195.062500 0.548414 -0.647752 -0.528828 1.000000 0.783065
-460.601593 105.783333 215.851578 0.548414 -0.647752 -0.528828 0.718200 0.197275
-439.437500 141.031250 194.625000 0.548414 -0.647752 -0.528828 0.999759 0.784887
-417.976562 105.781258 173.953125 -0.708308 -0.000027 -0.705904 0.447197 1.000000
-417.975891 68.031258 173.953873 -0.708308 -0.000027 -0.705904 0.000000 0.802733
-439.015625 141.031250 195.062500 -0.708308 -0.000027 -0.705904 1.000000 0.783065
-460.601624 68.031250 215.851608 -0.700984 0.004184 -0.713164 0.270978 0.000000
-439.015625 141.031250 195.062500 -0.700984 0.004184 -0.713164 1.000000 0.783065
-417.975891 68.031258 173.953873 -0.700984 0.004184 -0.713164 0.000000 0.802733
-460.601624 68.031250 215.851608 -0.693686 -0.000000 -0.720277 0.270978 0.000000
-460.601593 105.783333 215.851578 -0.693686 -0.000000 -0.720277 0.718200 0.197275
-439.015625 141.031250 195.062500 -0.693686 -0.000000 -0.720277 1.000000 0.783065
-460.386566 68.031250 173.730179 0.686434 0.008205 -0.727146 0.997617 0.883619
-460.601624 105.778984 173.953079 0.686434 0.008205 -0.727146 0.532135 1.000000
-439.125000 141.031250 194.625000 0.686434 0.008205 -0.727146 0.000000 0.669783
-439.562500 141.031250 195.062500 0.538764 0.647663 0.538764 0.002429 0.668472
-417.976501 105.781174 215.851608 0.538764 0.647663 0.538764 0.341441 0.117127
-439.125000 141.031250 194.625000 0.538764 0.647663 0.538764 0.000000 0.669783
-417.976471 68.031258 215.851669 0.708409 -0.000001 -0.705803 0.808149 0.000000
-439.125000 141.031250 194.625000 0.708409 -0.000001 -0.705803 0.000000 0.669783
-417.976501 105.781174 215.851608 0.708409 -0.000001 -0.705803 0.341441 0.117127
-417.976471 68.031258 215.851669 0.704687 -0.002158 -0.709515 0.808149 0.000000
-460.386566 68.031250 173.730179 0.704687 -0.002158 -0.709515 0.997617 0.883619
-439.125000 141.031250 194.625000 0.704687 -0.002158 -0.709515 0.000000 0.669783
-460.386566 68.031250 173.730179 0.000000 -1.000000 0.000000 0.997617 0.883619
-417.976471 68.031258 215.851669 0.000000 -1.000000 0.000000 0.808149 0.000000
-460.814148 68.031250 174.173599 0.000000 -1.000000 0.000000 1.000000 0.882148
-460.601624 105.778984 173.953079 -0.715001 0.008110 0.699077 0.532135 1.000000
-460.814148 68.031250 174.173599 -0.715001 0.008110 0.699077 1.000000 0.882148
-439.562500 141.031250 195.062500 -0.715001 0.008110 0.699077 0.002429 0.668472
-417.976471 68.031258 215.851669 -0.697338 -0.002087 0.716740 0.808149 0.000000
-439.562500 141.031250 195.062500 -0.697338 -0.002087 0.716740 0.002429 0.668472
-460.814148 68.031250 174.173599 -0.697338 -0.002087 0.716740 1.000000 0.882148
-439.562500 141.031250 195.062500 -0.693686 0.000001 0.720277 0.002429 0.668472
-417.976471 68.031258 215.851669 -0.693686 0.000001 0.720277 0.808149 0.000000
-417.976501 105.781174 215.851608 -0.693686 0.000001 0.720277 0.341441 0.117127
-460.814148 68.031250 174.173599 -0.719846 -0.000002 -0.694134 1.000000 0.882148
-460.601624 105.778984 173.953079 -0.719846 -0.000002 -0.694134 0.532135 1.000000
-460.386566 68.031250 173.730179 -0.719846 -0.000002 -0.694134 0.997617 0.883619
-439.125000 141.031250 194.625000 -0.539987 0.645623 -0.539987 0.000000 0.669783
-460.601624 105.778984 173.953079 -0.539987 0.645623 -0.539987 0.532135 1.000000
-439.562500 141.031250 195.062500 -0.539987 0.645623 -0.539987 0.002429 0.668472
-429.610046 116.789345 205.107498 0.825142 -0.562874 0.048101 0.822460 0.059980
-439.048340 102.099052 195.110825 0.825142 -0.562874 0.048101 0.540448 0.000000
-429.703674 115.112038 187.085815 0.825142 -0.562874 0.048101 0.925304 0.049523
-452.578430 117.177834 191.535141 -0.936346 -0.010970 0.350908 0.068861 0.057476
-447.305695 117.670471 205.620071 -0.936346 -0.010970 0.350908 0.177244 0.062698
-452.827240 332.975494 197.617355 -0.936346 -0.010970 0.350908 0.000000 0.901543
-447.540070 341.735107 186.013611 -0.853225 0.521519 0.004926 0.259160 0.933489
-452.827240 332.975494 197.617355 -0.853225 0.521519 0.004926 0.000000 0.901543
-437.448608 358.163177 194.688858 -0.853225 0.521519 0.004926 0.572453 1.000000
-432.509216 339.578491 183.979492 -0.131325 0.019559 -0.991146 0.816777 0.925335
-440.777649 118.624123 180.714783 -0.131325 0.019559 -0.991146 0.560578 0.061337
-447.540070 341.735107 186.013611 -0.131325 0.019559 -0.991146 0.259160 0.933489
-429.703674 115.112038 187.085815 0.230582 -0.625334 -0.745513 0.925304 0.049523
-439.048340 102.099052 195.110825 0.230582 -0.625334 -0.745513 0.540448 0.000000
-440.777649 118.624123 180.714783 0.230582 -0.625334 -0.745513 0.560578 0.061337
-432.907928 338.233246 205.489975 0.751644 0.010055 0.659493 0.675872 0.924719
-429.610046 116.789345 205.107498 0.751644 0.010055 0.659493 0.822460 0.059980
-425.372467 331.069519 197.010803 0.751644 0.010055 0.659493 1.000000 0.895262
-452.827240 332.975494 197.617355 -0.780487 0.517344 0.350992 0.000000 0.901543
-444.348297 340.030334 206.073166 -0.780487 0.517344 0.350992 0.257118 0.931325
-437.448608 358.163177 194.688858 -0.780487 0.517344 0.350992 0.572453 1.000000
-440.777649 118.624123 180.714783 -0.500754 -0.597775 -0.626028 0.560578 0.061337
-439.048340 102.099052 195.110825 -0.500754 -0.597775 -0.626028 0.540448 0.000000
-452.578430 117.177834 191.535141 -0.500754 -0.597775 -0.626028 0.068861 0.057476
-447.305695 117.670471 205.620071 0.028833 -0.002420 0.999581 0.177244 0.062698
-429.610046 116.789345 205.107498 0.028833 -0.002420 0.999581 0.822460 0.059980
-444.348297 340.030334 206.073166 0.028833 -0.002420 0.999581 0.257118 0.931325
-425.372467 331.069519 197.010803 0.893593 0.377473 -0.242910 1.000000 0.895262
-432.509216 339.578491 183.979492 0.893593 0.377473 -0.242910 0.816777 0.925335
-437.448608 358.163177 194.688858 0.893593 0.377473 -0.242910 0.572453 1.000000
-432.509216 339.578491 183.979492 -0.047670 0.489174 -0.870883 0.816777 0.925335
-447.540070 341.735107 186.013611 -0.047670 0.489174 -0.870883 0.259160 0.933489
-437.448608 358.163177 194.688858 -0.047670 0.489174 -0.870883 0.572453 1.000000
-444.348297 340.030334 206.073166 0.121512 0.494205 0.860811 0.257118 0.931325
-432.907928 338.233246 205.489975 0.121512 0.494205 0.860811 0.675872 0.924719
-437.448608 358.163177 194.688858 0.121512 0.494205 0.860811 0.572453 1.000000
-429.610046 116.789345 205.107498 0.999796 -0.019898 -0.003342 0.822460 0.059980
-429.703674 115.112038 187.085815 0.999796 -0.019898 -0.003342 0.925304 0.049523
-425.372467 331.069519 197.010803 0.999796 -0.019898 -0.003342 1.000000 0.895262
-440.777649 118.624123 180.714783 -0.675625 -0.002969 -0.737240 0.560578 0.061337
-452.578430 117.177834 191.535141 -0.675625 -0.002969 -0.737240 0.068861 0.057476
-447.540070 341.735107 186.013611 -0.675625 -0.002969 -0.737240 0.259160 0.933489
-452.827240 332.975494 197.617355 -0.709447 0.008000 0.704713 0.000000 0.901543
-447.305695 117.670471 205.620071 -0.709447 0.008000 0.704713 0.177244 0.062698
-444.348297 340.030334 206.073166 -0.709447 0.008000 0.704713 0.257118 0.931325
-452.578430 117.177834 191.535141 -0.744339 -0.596864 0.299522 0.068861 0.057476
-439.048340 102.099052 195.110825 -0.744339 -0.596864 0.299522 0.540448 0.000000
-447.305695 117.670471 205.620071 -0.744339 -0.596864 0.299522 0.177244 0.062698
-425.372467 331.069519 197.010803 0.878269 0.004360 -0.478147 1.000000 0.895262
-429.703674 115.112038 187.085815 0.878269 0.004360 -0.478147 0.925304 0.049523
-432.509216 339.578491 183.979492 0.878269 0.004360 -0.478147 0.816777 0.925335
-439.048340 102.099052 195.110825 -0.003946 -0.560852 0.827907 0.540448 0.000000
-429.610046 116.789345 205.107498 -0.003946 -0.560852 0.827907 0.822460 0.059980
-447.305695 117.670471 205.620071 -0.003946 -0.560852 0.827907 0.177244 0.062698
-432.907928 338.233246 205.489975 0.826226 0.402079 0.394568 0.675872 0.924719
-425.372467 331.069519 197.010803 0.826226 0.402079 0.394568 1.000000 0.895262
-437.448608 358.163177 194.688858 0.826226 0.402079 0.394568 0.572453 1.000000
-447.540070 341.735107 186.013611 -0.912893 0.010449 -0.408066 0.259160 0.933489
-452.578430 117.177834 191.535141 -0.912893 0.010449 -0.408066 0.068861 0.057476
-452.827240 332.975494 197.617355 -0.912893 0.010449 -0.408066 0.000000 0.901543
-444.348297 340.030334 206.073166 0.050759 -0.000969 0.998710 0.257118 0.931325
-429.610046 116.789345 205.107498 0.050759 -0.000969 0.998710 0.822460 0.059980
-432.907928 338.233246 205.489975 0.050759 -0.000969 0.998710 0.675872 0.924719
-429.703674 115.112038 187.085815 0.497288 -0.005791 -0.867566 0.925304 0.049523
-440.777649 118.624123 180.714783 0.497288 -0.005791 -0.867566 0.560578 0.061337
-432.509216 339.578491 183.979492 0.497288 -0.005791 -0.867566 0.816777 0.925335
"resources/models/bf109/metal37.bmp"
"resources/models/bf109/goblinme.bmp"
3 0 1 2 0
3 3 4 5 0
3 6 7 8 0
3 9 10 11 0
3 12 13 14 0
3 15 16 17 0
3 18 19 20 0
3 21 22 23 0
3 24 25 26 0
3 27 28 29 0
3 30 31 32 0
3 33 34 35 0
3 36 37 38 0
3 39 40 41 0
3 42 43 44 0
3 45 46 47 0
3 48 49 50 0
3 51 52 53 0
3 54 55 56 1
3 57 58 59 1
3 60 61 62 1
3 63 64 65 1
3 66 67 68 1
3 69 70 71 1
3 72 73 74 1
3 75 76 77 1
3 78 79 80 1
3 81 82 83 1
3 84 85 86 1
3 87 88 89 1
3 90 91 92 1
3 93 94 95 1
3 96 97 98 1
3 99 100 101 1
3 102 103 104 1
3 105 106 107 1
3 108 109 110 1
3 111 112 113 1
3 114 115 116 1
3 117 118 119 1
