ply
format ascii 1.0
comment created by ply_export.py from Blender
element vertex 80
property float32 x
property float32 y
property float32 z
property float32 nx
property float32 ny
property float32 nz
property float32 s
property float32 t
element material 1
property string texture_map
element face 25
property list uint8 int32 vertex_indices
property uint32 material_index
end_header
0.893178 0.187021 -2.327500 0.357271 0.074808 -0.931000 0.514389 0.999768
1.425089 0.730767 -2.079688 0.357271 0.074808 -0.931000 0.245128 0.999870
1.556629 -0.200127 -2.104009 0.357271 0.074808 -0.931000 0.858474 1.000000
-0.893178 -0.187021 2.327500 -0.357271 -0.074808 0.931000 0.518083 0.290341
-0.229726 -0.574169 2.550991 -0.357271 -0.074808 0.931000 0.862167 0.290573
-0.361266 0.356725 2.575312 -0.357271 -0.074808 0.931000 0.248822 0.290443
0.893178 0.187021 -2.327500 0.357271 0.074808 -0.931000 0.514389 0.999768
1.556629 -0.200127 -2.104009 0.357271 0.074808 -0.931000 0.858474 1.000000
0.771302 -0.595996 -2.437187 0.357271 0.074808 -0.931000 0.996306 0.999809
-0.893178 -0.187021 2.327500 -0.357271 -0.074808 0.931000 0.518083 0.290341
-1.015053 -0.970038 2.217813 -0.357271 -0.074808 0.931000 1.000000 0.290382
-0.229726 -0.574169 2.550991 -0.357271 -0.074808 0.931000 0.862167 0.290573
0.893178 0.187021 -2.327500 0.357271 0.074808 -0.931000 0.514389 0.999768
0.771302 -0.595996 -2.437187 0.357271 0.074808 -0.931000 0.996306 0.999809
0.154403 0.090238 -2.618782 0.357271 0.074808 -0.931000 0.468146 0.999562
-0.893178 -0.187021 2.327500 -0.357271 -0.074808 0.931000 0.518083 0.290341
-1.631953 -0.283803 2.036219 -0.357271 -0.074808 0.931000 0.471839 0.290135
-1.015053 -0.970038 2.217813 -0.357271 -0.074808 0.931000 1.000000 0.290382
0.893178 0.187021 -2.327500 0.357271 0.074808 -0.931000 0.514389 0.999768
0.154403 0.090238 -2.618782 0.357271 0.074808 -0.931000 0.468146 0.999562
0.558465 0.910223 -2.397835 0.357271 0.074808 -0.931000 0.003892 0.999600
-0.893178 -0.187021 2.327500 -0.357271 -0.074809 0.931000 0.518083 0.290341
-1.227889 0.536181 2.257166 -0.357271 -0.074809 0.931000 0.007586 0.290172
-1.631953 -0.283803 2.036219 -0.357271 -0.074809 0.931000 0.471839 0.290135
0.558465 0.910223 -2.397835 0.357271 0.074808 -0.931000 0.003892 0.999600
1.425089 0.730767 -2.079688 0.357271 0.074808 -0.931000 0.245128 0.999870
0.893178 0.187021 -2.327500 0.357271 0.074808 -0.931000 0.514389 0.999768
-0.893178 -0.187021 2.327500 -0.357271 -0.074808 0.931000 0.518083 0.290341
-0.361266 0.356725 2.575312 -0.357271 -0.074808 0.931000 0.248822 0.290443
-1.227889 0.536181 2.257166 -0.357271 -0.074808 0.931000 0.007586 0.290172
1.425089 0.730767 -2.079688 0.923469 0.120978 0.364102 0.245128 0.999870
-0.361266 0.356725 2.575312 0.923469 0.120978 0.364102 0.248822 0.290443
-0.229726 -0.574169 2.550991 0.923469 0.120978 0.364102 0.862167 0.290573
1.556629 -0.200127 -2.104009 0.923469 0.120978 0.364102 0.858474 1.000000
1.556629 -0.200127 -2.104009 0.418391 -0.904002 0.087918 0.858474 1.000000
-0.229726 -0.574169 2.550991 0.418391 -0.904002 0.087918 0.862167 0.290573
-1.015053 -0.970038 2.217813 0.418391 -0.904002 0.087918 1.000000 0.290382
0.771302 -0.595996 -2.437187 0.418391 -0.904002 0.087918 0.996306 0.999809
0.771302 -0.595996 -2.437187 -0.664889 -0.679682 -0.309765 0.996306 0.999809
-1.015053 -0.970038 2.217813 -0.664889 -0.679682 -0.309765 1.000000 0.290382
-1.631953 -0.283803 2.036219 -0.664889 -0.679682 -0.309765 0.471839 0.290135
0.154403 0.090238 -2.618782 -0.664889 -0.679682 -0.309765 0.468146 0.999562
0.154403 0.090238 -2.618782 -0.829314 0.483936 -0.279364 0.468146 0.999562
-1.631953 -0.283803 2.036219 -0.829314 0.483936 -0.279364 0.471839 0.290135
-1.227889 0.536181 2.257166 -0.829314 0.483936 -0.279364 0.007586 0.290172
0.558465 0.910223 -2.397835 -0.829314 0.483936 -0.279364 0.003892 0.999600
-0.361266 0.356725 2.575312 0.152345 0.978771 0.137109 0.248822 0.290443
1.425089 0.730767 -2.079688 0.152345 0.978771 0.137109 0.245128 0.999870
0.558465 0.910223 -2.397835 0.152345 0.978771 0.137109 0.003892 0.999600
-1.227889 0.536181 2.257166 0.152345 0.978771 0.137109 0.007586 0.290172
-1.615797 -0.315440 4.237841 0.726032 -0.387904 0.567810 0.505093 0.000000
-0.514395 -0.848811 2.465152 0.726032 -0.387904 0.567810 0.996051 0.284514
-0.197354 0.016839 2.651143 0.726032 -0.387904 0.567810 0.489904 0.285212
-1.615797 -0.315440 4.237841 -0.154444 -0.968478 0.195439 0.505093 0.000000
-1.395257 -0.773042 2.144527 -0.154444 -0.968478 0.195439 0.818963 0.282755
-0.514395 -0.848811 2.465152 -0.154444 -0.968478 0.195439 0.996051 0.284514
-1.615797 -0.315440 4.237841 -0.969004 -0.242102 -0.049165 0.505093 0.000000
-1.622619 0.139437 2.132362 -0.969004 -0.242102 -0.049165 0.203369 0.282366
-1.395257 -0.773042 2.144527 -0.969004 -0.242102 -0.049165 0.818963 0.282755
-1.615797 -0.315440 4.237841 -0.591954 0.787398 0.172031 0.505093 0.000000
-0.882274 0.627610 2.445468 -0.591954 0.787398 0.172031 0.000000 0.283885
-1.622619 0.139437 2.132362 -0.591954 0.787398 0.172031 0.203369 0.282366
-1.615797 -0.315440 4.237841 0.455635 0.697287 0.553342 0.505093 0.000000
-0.197354 0.016839 2.651143 0.455635 0.697287 0.553342 0.489904 0.285212
-0.882274 0.627610 2.445468 0.455635 0.697287 0.553342 0.000000 0.283885
-0.922380 -0.167594 2.367730 0.346709 0.073922 -0.935055 0.501657 0.283747
-0.197354 0.016839 2.651143 0.346709 0.073922 -0.935055 0.489904 0.285212
-0.514395 -0.848811 2.465152 0.346709 0.073922 -0.935055 0.996051 0.284514
-0.922380 -0.167594 2.367730 0.346709 0.073922 -0.935055 0.501657 0.283747
-0.514395 -0.848811 2.465152 0.346709 0.073922 -0.935055 0.996051 0.284514
-1.395257 -0.773042 2.144527 0.346709 0.073922 -0.935055 0.818963 0.282755
-0.922380 -0.167594 2.367730 0.346708 0.073923 -0.935056 0.501657 0.283747
-1.395257 -0.773042 2.144527 0.346708 0.073923 -0.935056 0.818963 0.282755
-1.622619 0.139437 2.132362 0.346708 0.073923 -0.935056 0.203369 0.282366
-0.922380 -0.167594 2.367730 0.346708 0.073923 -0.935055 0.501657 0.283747
-1.622619 0.139437 2.132362 0.346708 0.073923 -0.935055 0.203369 0.282366
-0.882274 0.627610 2.445468 0.346708 0.073923 -0.935055 0.000000 0.283885
-0.922380 -0.167594 2.367730 0.346709 0.073923 -0.935055 0.501657 0.283747
-0.882274 0.627610 2.445468 0.346709 0.073923 -0.935055 0.000000 0.283885
-0.197354 0.016839 2.651143 0.346709 0.073923 -0.935055 0.489904 0.285212
"resources/models/projectiles/fire.jpg"
3 0 1 2 0
3 3 4 5 0
3 6 7 8 0
3 9 10 11 0
3 12 13 14 0
3 15 16 17 0
3 18 19 20 0
3 21 22 23 0
3 24 25 26 0
3 27 28 29 0
4 30 31 32 33 0
4 34 35 36 37 0
4 38 39 40 41 0
4 42 43 44 45 0
4 46 47 48 49 0
3 50 51 52 0
3 53 54 55 0
3 56 57 58 0
3 59 60 61 0
3 62 63 64 0
3 65 66 67 0
3 68 69 70 0
3 71 72 73 0
3 74 75 76 0
3 77 78 79 0
