ply
format ascii 1.0
comment created by ply_export.py from Blender
element vertex 60
property float32 x
property float32 y
property float32 z
property float32 nx
property float32 ny
property float32 nz
property float32 s
property float32 t
element material 1
property string texture_map
element face 20
property list uint8 int32 vertex_indices
property uint32 material_index
end_header
0.562071 -0.747092 -0.354835 0.910286 -0.209117 -0.357282 0.000000 1.000000
0.637098 0.230103 -0.735635 0.910286 -0.209117 -0.357282 0.000000 0.000000
0.970906 0.018484 0.238705 0.910286 -0.209117 -0.357282 1.000000 0.000000
0.970906 0.018484 0.238705 0.855612 0.482105 -0.188422 0.000000 1.000000
0.637098 0.230103 -0.735635 0.855612 0.482105 -0.188422 0.000000 0.000000
0.431738 0.900725 0.047719 0.855612 0.482105 -0.188422 1.000000 0.000000
-0.229785 -0.338001 -0.912662 0.406629 -0.358654 -0.840250 0.000000 1.000000
0.637098 0.230103 -0.735635 0.406629 -0.358654 -0.840250 0.000000 0.000000
0.562071 -0.747092 -0.354835 0.406629 -0.358654 -0.840250 1.000000 0.000000
-0.310328 0.680415 -0.663860 0.040672 0.240161 -0.969881 0.000000 1.000000
0.637098 0.230103 -0.735635 0.040672 0.240161 -0.969881 0.000000 0.000000
-0.229785 -0.338001 -0.912662 0.040672 0.240161 -0.969881 1.000000 0.000000
0.431738 0.900725 0.047719 0.318163 0.759773 -0.567025 0.000000 1.000000
0.637098 0.230103 -0.735635 0.318163 0.759773 -0.567025 0.000000 0.000000
-0.310328 0.680415 -0.663860 0.318163 0.759773 -0.567025 1.000000 0.000000
0.970906 0.018484 0.238705 0.684760 0.527365 0.502981 0.000000 1.000000
0.431738 0.900725 0.047719 0.684760 0.527365 0.502981 0.000000 0.000000
0.229785 0.338001 0.912662 0.684760 0.527365 0.502981 1.000000 0.000000
0.562071 -0.747092 -0.354835 0.773219 -0.591050 0.229766 0.000000 1.000000
0.970906 0.018484 0.238705 0.773219 -0.591050 0.229766 0.000000 0.000000
0.310328 -0.680415 0.663860 0.773219 -0.591050 0.229766 1.000000 0.000000
-0.229785 -0.338001 -0.912662 -0.041713 -0.833008 -0.551687 0.000000 1.000000
0.562071 -0.747092 -0.354835 -0.041713 -0.833008 -0.551687 0.000000 0.000000
-0.431738 -0.900725 -0.047719 -0.041713 -0.833008 -0.551687 1.000000 0.000000
-0.310328 0.680415 -0.663860 -0.633841 0.135892 -0.761432 0.000000 1.000000
-0.229785 -0.338001 -0.912662 -0.633841 0.135892 -0.761432 0.000000 0.000000
-0.970906 -0.018484 -0.238705 -0.633841 0.135892 -0.761432 1.000000 0.000000
0.431738 0.900725 0.047719 -0.184849 0.976636 -0.109604 0.000000 1.000000
-0.310328 0.680415 -0.663860 -0.184849 0.976636 -0.109604 0.000000 0.000000
-0.562071 0.747092 0.354835 -0.184849 0.976636 -0.109604 1.000000 0.000000
0.229785 0.338001 0.912662 0.633841 -0.135892 0.761432 0.000000 1.000000
0.310328 -0.680415 0.663860 0.633841 -0.135892 0.761432 0.000000 0.000000
0.970906 0.018484 0.238705 0.633841 -0.135892 0.761432 1.000000 0.000000
0.310328 -0.680415 0.663860 0.184849 -0.976636 0.109604 0.000000 1.000000
-0.431738 -0.900725 -0.047719 0.184849 -0.976636 0.109604 0.000000 0.000000
0.562071 -0.747092 -0.354835 0.184849 -0.976636 0.109604 1.000000 0.000000
-0.431738 -0.900725 -0.047719 -0.684760 -0.527365 -0.502981 0.000000 1.000000
-0.970906 -0.018484 -0.238705 -0.684760 -0.527365 -0.502981 0.000000 0.000000
-0.229785 -0.338001 -0.912662 -0.684760 -0.527365 -0.502981 1.000000 0.000000
-0.970906 -0.018484 -0.238705 -0.773219 0.591050 -0.229766 0.000000 1.000000
-0.562071 0.747092 0.354835 -0.773219 0.591050 -0.229766 0.000000 0.000000
-0.310328 0.680415 -0.663860 -0.773219 0.591050 -0.229766 1.000000 0.000000
-0.562071 0.747092 0.354835 0.041713 0.833008 0.551687 0.000000 1.000000
0.229785 0.338001 0.912662 0.041713 0.833008 0.551687 0.000000 0.000000
0.431738 0.900725 0.047719 0.041713 0.833008 0.551687 1.000000 0.000000
0.310328 -0.680415 0.663860 -0.040672 -0.240161 0.969881 0.000000 1.000000
0.229785 0.338001 0.912662 -0.040672 -0.240161 0.969881 0.000000 0.000000
-0.637098 -0.230103 0.735635 -0.040672 -0.240161 0.969881 1.000000 0.000000
-0.431738 -0.900725 -0.047719 -0.318163 -0.759773 0.567025 0.000000 1.000000
0.310328 -0.680415 0.663860 -0.318163 -0.759773 0.567025 0.000000 0.000000
-0.637098 -0.230103 0.735635 -0.318163 -0.759773 0.567025 1.000000 0.000000
-0.970906 -0.018484 -0.238705 -0.855612 -0.482105 0.188422 0.000000 1.000000
-0.431738 -0.900725 -0.047719 -0.855612 -0.482105 0.188422 0.000000 0.000000
-0.637098 -0.230103 0.735635 -0.855612 -0.482105 0.188422 1.000000 0.000000
-0.562071 0.747092 0.354835 -0.910286 0.209117 0.357282 0.000000 1.000000
-0.970906 -0.018484 -0.238705 -0.910286 0.209117 0.357282 0.000000 0.000000
-0.637098 -0.230103 0.735635 -0.910286 0.209117 0.357282 1.000000 0.000000
0.229785 0.338001 0.912662 -0.406629 0.358654 0.840250 0.000000 1.000000
-0.562071 0.747092 0.354835 -0.406629 0.358654 0.840250 0.000000 0.000000
-0.637098 -0.230103 0.735635 -0.406629 0.358654 0.840250 1.000000 0.000000
"resources/models/projectiles/metal.jpg"
3 0 1 2 0
3 3 4 5 0
3 6 7 8 0
3 9 10 11 0
3 12 13 14 0
3 15 16 17 0
3 18 19 20 0
3 21 22 23 0
3 24 25 26 0
3 27 28 29 0
3 30 31 32 0
3 33 34 35 0
3 36 37 38 0
3 39 40 41 0
3 42 43 44 0
3 45 46 47 0
3 48 49 50 0
3 51 52 53 0
3 54 55 56 0
3 57 58 59 0
